<svg width="83" height="40" viewBox="0 0 83 40" fill="none" xmlns="http://www.w3.org/2000/svg">
<g clip-path="url(#clip0_10613_13382)">
<path d="M67.0107 39.6578H69.4234V31.3239C69.4234 28.6691 70.841 26.6985 73.7717 26.6985C75.6256 26.6985 76.7569 27.8754 76.7569 29.6681V39.6578H79.1696V29.9555C79.1696 26.7943 77.9701 24.5638 74.1125 24.5638C72.0133 24.5638 70.3639 25.4259 69.3416 27.2459H69.2871V24.9059H67.0107V39.6578ZM52.7252 32.2819C52.7252 28.6828 54.7699 26.6849 57.3053 26.6849C59.8407 26.6849 61.8854 28.6828 61.8854 32.2819C61.8854 35.8535 59.8407 37.8515 57.3053 37.8515C54.7699 37.8515 52.7116 35.8535 52.7252 32.2819ZM50.1626 32.2819C50.1626 36.5925 52.6298 39.9863 57.3053 39.9863C61.9808 39.9863 64.448 36.5925 64.448 32.2819C64.448 27.9438 61.9808 24.5501 57.3053 24.5501C52.6298 24.5501 50.1626 27.9438 50.1626 32.2819ZM49.4674 24.8922H46.932L42.9245 37.1946H42.8699L38.7533 24.8922H36.0544L41.5068 39.6442H44.0967L49.4674 24.8922ZM35.7408 37.7146C35.5065 37.8074 35.2566 37.8538 35.0048 37.8515C34.2414 37.8515 34.2414 37.3315 34.2414 36.1956V28.6007C34.2414 25.1522 31.3652 24.5501 28.7208 24.5501C25.4493 24.5501 22.6413 25.8364 22.4914 29.4902H24.9041C25.0131 27.3144 26.5262 26.6985 28.5709 26.6985C30.1112 26.6985 31.8423 27.0407 31.8423 29.1481C31.8423 30.9681 29.5659 30.8039 26.8942 31.3239C24.3861 31.8029 21.9189 32.5282 21.9189 35.8672C21.9189 38.8094 24.1135 39.9999 26.7852 39.9999C28.8299 39.9999 30.6292 39.2884 31.965 37.7146C31.965 39.3157 32.7556 39.9999 34.0097 39.9999C34.773 39.9999 35.3183 39.8631 35.7408 39.6031V37.7146ZM31.8151 34.5124C31.8151 35.8535 30.5065 37.8515 27.3168 37.8515C25.8446 37.8515 24.4679 37.2767 24.4679 35.6756C24.4679 33.8829 25.831 33.3082 27.4258 33.0208C29.048 32.7334 30.8609 32.7061 31.8014 32.0218L31.8151 34.5124ZM16.8753 39.6578H19.2881V19.2678H16.8753V39.6578ZM0 39.6578H14.0946V37.3725H2.69897V30.325H13.2495V28.0396H2.69897V21.5531H14.0128V19.2678H0V39.6578Z" fill="#212123"/>
<path d="M60.2623 9.31915C60.2918 8.50683 60.2736 7.69347 60.2078 6.8833C52.9833 7.49911 42.8417 12.1519 33.4499 19.7468C32.3866 20.6089 31.3643 21.4711 30.3965 22.3469H30.9963C31.1735 22.21 31.337 22.0595 31.5142 21.909C41.3968 13.9309 52.1927 9.29179 59.5262 9.29179C59.7716 9.29179 60.0169 9.30547 60.2623 9.31915Z" fill="#0C2074"/>
<path d="M68.2509 8.99085C67.215 7.92346 65.7428 7.29397 63.9844 7.00659C64.1027 8.0471 64.1664 9.09313 64.1752 10.1404C64.9983 10.4799 65.7447 10.9825 66.3698 11.6183C67.7057 12.9867 68.3054 14.8615 68.1691 17.2016C68.0737 18.789 67.6375 20.5269 66.9014 22.3607H67.2967C68.8916 19.4459 69.8321 16.709 69.9821 14.3278C70.1048 12.0836 69.5186 10.2909 68.2509 8.99085Z" fill="#0C2074"/>
<path d="M62.322 2.87376C61.6813 0.971605 60.7408 0 59.5276 0H59.514C57.2921 0 54.525 3.2843 51.7715 8.94971C52.2486 8.77181 52.7257 8.6076 53.1891 8.44338C55.1111 5.20014 56.9377 3.2843 58.2599 3.2843H58.3826C59.1187 3.35272 59.6639 4.06432 59.9774 5.40541C60.7953 8.85392 59.8956 15.6141 57.8919 22.7438C59.4322 22.8395 60.7817 23.2227 61.9131 23.8659C63.4534 14.9846 63.726 7.02018 62.322 2.87376Z" fill="#0075C9"/>
<path d="M50.2453 12.3436C49.6183 13.8352 49.0049 15.4363 48.3915 17.1606C47.7917 18.8574 47.2328 20.5954 46.7148 22.347H47.301C48.1304 19.6523 49.0995 17.0031 50.2044 14.41C50.5725 13.5615 50.9405 12.7678 51.3085 11.9878C50.9541 12.0973 50.5997 12.2067 50.2453 12.3436Z" fill="#0075C9"/>
<path d="M82.4693 37.4411C82.6971 37.6552 82.8308 37.9514 82.841 38.2645C82.8512 38.5776 82.7372 38.882 82.5239 39.1106C82.4183 39.2238 82.2915 39.3151 82.1507 39.3791C82.01 39.4431 81.8581 39.4787 81.7037 39.4838C81.3918 39.494 81.0886 39.3795 80.8609 39.1654L80.8063 39.1106C80.6439 38.9462 80.5333 38.7374 80.4882 38.5103C80.4431 38.2831 80.4656 38.0477 80.5528 37.8333C80.6399 37.6189 80.788 37.435 80.9785 37.3044C81.169 37.1739 81.3936 37.1024 81.6242 37.099C81.9391 37.1004 82.2415 37.2228 82.4693 37.4411ZM82.6057 37.3043C82.3829 37.0785 82.089 36.9373 81.7741 36.9051C81.4591 36.8728 81.1428 36.9513 80.8792 37.1272C80.6156 37.3031 80.421 37.5655 80.3288 37.8695C80.2366 38.1735 80.2524 38.5002 80.3735 38.7938C80.4947 39.0874 80.7137 39.3296 80.993 39.479C81.2724 39.6285 81.5948 39.6759 81.9051 39.6131C82.2154 39.5503 82.4943 39.3812 82.6942 39.1348C82.8941 38.8884 83.0025 38.58 83.001 38.2622C82.9956 37.904 82.8542 37.5613 82.6057 37.3043ZM81.8423 38.2074C81.764 38.2367 81.6797 38.2461 81.5969 38.2348H81.3652V37.6874H81.5969C81.7044 37.6776 81.8126 37.6965 81.9105 37.7422C81.9443 37.7669 81.9709 37.8002 81.9877 37.8387C82.0044 37.8772 82.0107 37.9194 82.0059 37.9611C82.0093 38.0145 81.9951 38.0675 81.9656 38.112C81.936 38.1565 81.8927 38.1901 81.8423 38.2074ZM81.0926 39.0148H81.3516V38.4264H81.5561C81.6591 38.4178 81.7625 38.4367 81.8559 38.4811C81.9062 38.5215 81.9452 38.5742 81.969 38.6341C81.9929 38.6941 82.0009 38.7593 81.9922 38.8232V39.0285H82.2376L82.224 39.0148C82.2129 38.989 82.2082 38.9608 82.2103 38.9327V38.7138C82.2103 38.6291 82.1814 38.5471 82.1286 38.4811C82.0974 38.4402 82.0584 38.4058 82.014 38.38C81.9696 38.3541 81.9205 38.3374 81.8696 38.3306C81.946 38.3224 82.0202 38.2992 82.0877 38.2622C82.135 38.2279 82.1733 38.1826 82.1995 38.1301C82.2256 38.0777 82.2387 38.0197 82.2376 37.9611C82.2432 37.881 82.2239 37.8012 82.1824 37.7325C82.1409 37.6639 82.0792 37.6099 82.0059 37.578C81.873 37.5396 81.7352 37.5212 81.5969 37.5232H81.079L81.0926 39.0148Z" fill="#212123"/>
</g>
<defs>
<clipPath id="clip0_10613_13382">
<rect width="83" height="40" fill="white"/>
</clipPath>
</defs>
</svg>
