<svg width="160" height="27" viewBox="0 0 160 27" fill="none" xmlns="http://www.w3.org/2000/svg">
<path d="M9.38105 26.5954C7.84144 26.5954 6.426 26.2974 5.13472 25.7015C3.84344 25.1055 2.80048 24.2488 2.00585 23.1313C1.21121 21.989 0.776645 20.6481 0.702148 19.1085V16.4638L6.69916 17.6558V18.2518C6.69916 18.9719 6.92265 19.5803 7.36963 20.0769C7.81661 20.5736 8.51192 20.8219 9.45554 20.8219C11.2435 20.8219 12.1374 19.7293 12.1374 17.544V0H18.3207V17.395C18.3207 20.4991 17.5012 22.8085 15.8623 24.3233C14.2482 25.838 12.0878 26.5954 9.38105 26.5954Z" fill="#333333"/>
<path d="M38.6528 26.0739H33.6615L32.8048 24.0625C32.2337 24.7827 31.5384 25.3911 30.7189 25.8877C29.9243 26.3595 28.8937 26.5954 27.6273 26.5954C25.1937 26.5954 23.4058 25.8753 22.2635 24.435C21.1212 22.9699 20.5501 20.7102 20.5501 17.6558V7.11446H26.6588V17.0971C26.6588 19.63 27.6273 20.8964 29.5642 20.8964C30.5327 20.8964 31.2652 20.5984 31.7619 20.0024C32.2833 19.4065 32.5441 18.4504 32.5441 17.1343V7.11446H38.6528V26.0739Z" fill="#333333"/>
<path d="M47.8136 26.5954C45.7029 26.5954 43.9274 26.0864 42.4871 25.0682C41.0717 24.0501 40.1653 22.7216 39.768 21.0826L44.722 19.481C44.9207 20.3253 45.2932 20.9585 45.8395 21.3806C46.3858 21.8028 47.0438 22.0139 47.8136 22.0139C48.6083 22.0139 49.2042 21.8773 49.6016 21.6041C49.9989 21.331 50.1975 20.9585 50.1975 20.4867C50.1975 20.0645 49.9616 19.7541 49.4898 19.5555C49.018 19.332 48.3724 19.1457 47.5529 18.9967C45.1442 18.5994 43.2941 17.9662 42.0029 17.0971C40.7116 16.2031 40.0659 14.8001 40.0659 12.888C40.0659 11.845 40.3391 10.8517 40.8854 9.9081C41.4566 8.93964 42.3257 8.145 43.4928 7.5242C44.6599 6.90339 46.1002 6.59298 47.8136 6.59298C49.6512 6.59298 51.2157 7.0648 52.5069 8.00843C53.8231 8.95205 54.6798 10.2558 55.0771 11.9195L50.3093 13.2977C50.1106 12.7017 49.8251 12.2175 49.4526 11.845C49.1049 11.4477 48.571 11.249 47.8509 11.249C47.2052 11.249 46.6713 11.3608 46.2492 11.5843C45.8519 11.7829 45.6532 12.0809 45.6532 12.4782C45.6532 12.8259 45.8643 13.1239 46.2864 13.3722C46.7334 13.5957 47.5032 13.8068 48.5958 14.0054C50.9798 14.4524 52.7677 15.1477 53.9596 16.0914C55.1764 17.035 55.7848 18.4132 55.7848 20.2259C55.7848 21.3682 55.4744 22.4236 54.8536 23.3921C54.2576 24.3605 53.3512 25.1427 52.1345 25.7387C50.9425 26.3099 49.5022 26.5954 47.8136 26.5954Z" fill="#333333"/>
<path d="M64.8449 26.5954C63.7771 26.5954 62.7838 26.3595 61.865 25.8877C60.9711 25.4159 60.2385 24.7206 59.6674 23.8018C59.1211 22.8582 58.8479 21.7035 58.8479 20.3377V12.441H55.7935V7.11446H58.8479V2.19766H64.9567V7.11446H69.1285V12.441H64.9567V19.332C64.9567 20.3749 65.4036 20.8964 66.2976 20.8964C66.8936 20.8964 67.4026 20.7102 67.8248 20.3377L70.1342 24.733C69.6624 25.2048 68.9919 25.6394 68.1228 26.0367C67.2537 26.4092 66.161 26.5954 64.8449 26.5954Z" fill="#333333"/>
<path d="M71.63 0H77.8132V20.3377H88.1683V26.0739H71.63V0Z" fill="#333333"/>
<path d="M93.8784 18.438C94.0025 19.2823 94.4371 20.0273 95.1821 20.6729C95.9519 21.3186 96.8831 21.6414 97.9757 21.6414C98.969 21.6414 99.7512 21.4179 100.322 20.9709C100.893 20.5239 101.291 20.0521 101.514 19.5555L106.543 21.0082C105.897 22.7712 104.867 24.1494 103.451 25.1427C102.036 26.1112 100.198 26.5954 97.9385 26.5954C96.225 26.5954 94.6233 26.1857 93.1334 25.3662C91.6435 24.5468 90.4391 23.3796 89.5203 21.8649C88.6263 20.3501 88.1793 18.5994 88.1793 16.6128C88.1793 14.6511 88.6139 12.9128 89.483 11.398C90.3522 9.88327 91.5317 8.70373 93.0217 7.85943C94.5116 7.01513 96.1505 6.59298 97.9385 6.59298C99.8009 6.59298 101.403 7.02755 102.744 7.89668C104.109 8.74098 105.152 9.92052 105.872 11.4353C106.593 12.9252 106.953 14.6262 106.953 16.5383V18.438H93.8784ZM101.701 14.6014C101.725 14.3283 101.614 13.9309 101.365 13.4095C101.142 12.888 100.745 12.4162 100.173 11.994C99.6271 11.5719 98.8821 11.3608 97.9385 11.3608C96.7962 11.3608 95.8774 11.6712 95.1821 12.292C94.5116 12.9128 94.0894 13.6826 93.9156 14.6014H101.701Z" fill="#333333"/>
<path d="M108.087 7.11446H113.078L113.935 9.12588C114.506 8.40574 115.189 7.80977 115.984 7.33795C116.803 6.84131 117.846 6.59298 119.112 6.59298C121.546 6.59298 123.334 7.32554 124.476 8.79064C125.619 10.2309 126.19 12.4782 126.19 15.5326V26.0739H120.081V16.0914C120.081 13.5585 119.112 12.292 117.176 12.292C116.207 12.292 115.462 12.59 114.941 13.186C114.444 13.7819 114.196 14.738 114.196 16.0541V26.0739H108.087V7.11446Z" fill="#333333"/>
<path d="M136.654 26.5954C135.015 26.5954 133.476 26.1857 132.035 25.3662C130.62 24.5468 129.478 23.3796 128.609 21.8649C127.739 20.3501 127.305 18.5994 127.305 16.6128C127.305 14.6262 127.739 12.8756 128.609 11.3608C129.478 9.82119 130.62 8.64165 132.035 7.82218C133.451 7.00272 134.966 6.59298 136.58 6.59298C137.772 6.59298 138.815 6.81648 139.709 7.26346C140.627 7.68561 141.298 8.15742 141.72 8.6789V0H147.829V26.0739H142.837L142.018 24.2115C141.521 24.8075 140.826 25.3538 139.932 25.8505C139.063 26.3471 137.97 26.5954 136.654 26.5954ZM137.623 21.0826C138.765 21.0826 139.733 20.6605 140.528 19.8162C141.323 18.9719 141.72 17.9041 141.72 16.6128C141.72 15.2967 141.323 14.2165 140.528 13.3722C139.758 12.5279 138.79 12.1058 137.623 12.1058C136.456 12.1058 135.462 12.5403 134.643 13.4095C133.823 14.2538 133.414 15.3215 133.414 16.6128C133.414 17.9041 133.823 18.9719 134.643 19.8162C135.462 20.6605 136.456 21.0826 137.623 21.0826Z" fill="#333333"/>
<path d="M149.759 16.906H159.536V26.2181H149.759V16.906Z" fill="#704cd9"/>
</svg>