<?xml version="1.0" encoding="utf-8"?>
<!-- Generator: Adobe Illustrator 18.0.0, SVG Export Plug-In . SVG Version: 6.00 Build 0)  -->
<!DOCTYPE svg PUBLIC "-//W3C//DTD SVG 1.1//EN" "http://www.w3.org/Graphics/SVG/1.1/DTD/svg11.dtd">
<svg version="1.1" id="Layer_1" xmlns="http://www.w3.org/2000/svg" xmlns:xlink="http://www.w3.org/1999/xlink" x="0px" y="0px"
	 viewBox="0 0 500 600" enable-background="new 0 0 500 600" xml:space="preserve">
<g>
	<path fill="#01335B" d="M331.9,142.2c-3.5-5.6-6.6-10.7-9.7-15.8c-6.8-11.1-13.6-22.3-20.4-33.4c-0.9-1.5-1.9-2.4-3.8-2.4
		c-6.3,0.1-12.5,0.1-18.8,0c-2.1,0-2.8,0.8-2.8,2.8c0,36.6,0,73.1,0,109.7c0,2.3,0.9,3,3,2.9c5.8-0.1,11.7-0.2,17.5,0
		c2.7,0.1,3.5-0.7,3.5-3.4c-0.1-21.3-0.1-42.7,0-64c0-0.6,0-1.1,0-1.8c0.4,0.2,0.7,0.2,0.7,0.3c5.4,8.9,10.8,17.7,16.1,26.6
		c0.9,1.5,1.9,2.1,3.7,2.1c7.4-0.1,14.9-0.1,22.3,0c1.6,0,2.6-0.5,3.4-1.9c3.3-5.6,6.8-11.1,10.2-16.7c1.8-3,3.7-6,5.5-9
		c0.2,0.1,0.5,0.1,0.7,0.2c0,1,0,2.1,0,3.1c0,20.5,0,41-0.1,61.6c0,2.3,0.7,3.2,3.1,3.1c6-0.1,12-0.1,18,0c2.2,0,3-0.6,3-2.9
		c-0.1-36.6-0.1-73.1,0-109.7c0-2.1-0.6-2.9-2.8-2.9c-6.1,0.1-12.2-0.1-18.3,0.1c-1.3,0-3,0.9-3.6,2c-5.9,9.4-11.6,18.9-17.4,28.3
		C340.7,128,336.5,134.8,331.9,142.2z M437.4,114.6c1.3,0,2.3,0,3.4,0c17.1,0,34.2,0,51.4,0c2.3,0,3.2-0.6,3.1-3c-0.2-6-0.1-12,0-18
		c0-2.2-0.6-3-2.9-3c-25.2,0.1-50.4,0.1-75.6,0c-2.3,0-3.2,0.7-3.2,3.1c0.1,36.5,0.1,73,0,109.4c0,2.2,0.8,3,3,3
		c25.3-0.1,50.6-0.1,75.8,0c2.1,0,2.9-0.6,2.8-2.8c-0.1-5.9-0.2-11.8,0-17.7c0.1-2.6-0.7-3.3-3.3-3.3c-17.1,0.1-34.2,0.1-51.4,0.1
		c-1,0-2.1,0-3.1,0c0-7.7,0-14.9,0-22.4c1.2,0,2.3,0,3.3,0c16.1,0,32.3,0,48.4,0.1c2.5,0,3.5-0.6,3.4-3.3
		c-0.2-5.6-0.1-11.3-0.1-16.9c0-3.6,0-3.6-3.6-3.6c-16.1,0-32.3,0-48.4,0c-1,0-2.1-0.1-3.2-0.1C437.4,128.9,437.4,122,437.4,114.6z
		 M205.2,182.2c0-1.4,0-2.4,0-3.5c0-28.3,0-56.6,0-84.9c0-2.3-0.6-3.2-3-3.1c-5.7,0.1-11.5,0-17.2,0c-3.5,0-3.6,0-3.6,3.6
		c0,21.8,0,43.5,0,65.3c0,14.4,0,28.9,0,43.3c0,1.7-0.1,3.2,2.4,3.2c23.2,0,46.4,0,69.6,0c1.9,0,2.6-0.7,2.5-2.6
		c-0.1-6.4-0.1-12.7,0-19.1c0-1.8-0.8-2.3-2.5-2.3c-2.4,0.1-4.8,0-7.3,0C232.8,182.2,219.3,182.2,205.2,182.2z"/>
</g>
<path id="path3141" fill="#01335B" d="M54.2,241.5c-13.8,1.3-14.8,22.3-1.9,24.9l1.3,0.2h1.3h1.4l1.4-0.2c12.7-3,12.8-23.5-0.9-24.9
	H54.2z M134,241.5c-13.7,1.4-14.7,22.2-1.9,24.9l1.4,0.2h1.3h1.3l1.4-0.2c13.2-3.3,12.7-23.7-0.9-24.9
	C136.5,241.5,134,241.5,134,241.5z M468.4,241.5c-19.4,0.4-18.5,30.1,4.5,24.5l1.8-0.6v-11.7h-5.5v8.2l-0.8,0.1h-0.9
	c-6.3-0.1-8.2-7.7-5.9-12.4l1-1.1l0.9-0.8l1.1-0.7l1.6-0.6l1.6-0.2l1.9,0.2l1.6,0.3l1.1,0.5h1.1l0.2-0.2l0.1-0.6v-1l-0.1-3.2
	l-1.1-0.5C471.1,241.6,469.7,241.5,468.4,241.5L468.4,241.5z M369.1,241.6c-18.4,0.1-17.4,30.1,3.9,24.1l1.6-0.6l-0.3-4.6h-0.1
	c-14.8,8.1-16.7-19.8-0.7-13.1h0.5l0.2-0.7l0.1-1.1v-3.2L373,242C371.6,241.7,370.3,241.6,369.1,241.6L369.1,241.6z M24.7,241.7
	v24.5h16.4v-4.7h-2.5l-7.9,0.1v-19.9C30.7,241.7,24.7,241.7,24.7,241.7z M102.9,241.9l-3.9,0.1v24.2l3.8,0.1h3.9
	c6.8-0.1,12.6-4.3,13.2-11.4v-2.7c-0.5-7.5-5.2-10.1-12.2-10.4C107.6,241.9,102.9,241.9,102.9,241.9z M71.3,242v24.2h5.1v-4.7
	l-0.2-6.3l-0.3-5.3l8.9,12.5l2.8,3.8h4.9V242h-4.9v5.5l0.1,5.5l0.2,4.9l-10.6-16C77.3,242,71.3,242,71.3,242z M151.4,242v24.2h5
	v-4.7l-0.1-6.3l-0.3-5.3l8.9,12.5l2.8,3.8h5.1V242h-5.1v5.5l0.1,5.5l0.3,4.9l-10.7-16C157.4,242,151.4,242,151.4,242z M191,242
	l-2.8,24.2h5.3l0.3-5.5l0.2-4.6l0.1-7.1v-0.5l5.7,17.5h4.9l1.9-5.3l1.4-4.6l1.1-3.9l1.1-3.8l1.1,17.9h5.7l-2.4-24.2h-6.5l-3.2,9.3
	l-1.1,4.3l-1,4.3l-5.5-17.9H191L191,242z M222.6,242v24.2h15.8v-4.6h-3l-7.4,0.1V256l6.6,0.1h2.9v-4.6h-6.2l-3.3,0.3v-5.3l7.2,0.1h3
	V242C238.3,242,222.6,242,222.6,242z M241.9,242v4.6h3.8l2.4-0.1v19.7h5.5v-19.7l2.2,0.1h3.9V242C259.7,242,241.9,242,241.9,242z
	 M267.8,242l-4.2,11.4l-4.5,12.8h5.4l1.7-5.3l1.8,0.3h4.7l2-0.3l1.6,5.3h6L274,242C274,242,267.8,242,267.8,242z M286.3,242v24.2
	h13.3v-4.7H297l-5.3,0.1V242C291.7,242,286.3,242,286.3,242z M313,242v24.2h15.8v-4.6h-2.7l-7.6,0.1V256l6.5,0.1h3v-4.6h-6.2
	l-3.3,0.3v-5.3l7.4,0.1h2.6V242C328.6,242,313,242,313,242z M332.4,242l1.4,1.9l6.5,9.9l-8.2,12.4h6.8l4.9-8.3l4.8,8.3h6.6
	l-8.1-12.4l5.9-9.1l1.9-2.7h-0.2h-6.6l-4.5,7.7l-4.4-7.7h-0.3H332.4L332.4,242z M378.9,242v24.2h5.5v-10.1l4.2,0.1l2.6-0.1h1.9v10.1
	h5.5V242h-5.5v9.5l-2.1-0.1h-4.4l-2.2,0.1V242C384.4,242,378.9,242,378.9,242z M410.9,242l-4.3,11.4l-4.4,12.8h5.3l1.6-5.3l1.9,0.3
	h4.7l2-0.3l1.6,5.3h5.9l-8.4-24.2C416.9,242,410.9,242,410.9,242z M429.2,242v24.2h5.2v-4.7l-0.1-6.3l-0.3-5.3l8.9,12.5l1.7,2.5
	l0.9,1.3h5.3V242h-5.3v5.5l0.2,5.5l0.5,4.9l-10.9-16H429.2L429.2,242z M480.1,242v24.2h15.8v-4.6h-2.8l-7.6,0.1V256l5.7,0.1h3.8
	v-4.6h-6.6l-2.8,0.3v-5.3l7.2,0.1h3V242C495.8,242,480.1,242,480.1,242z M55,246.2l1.4,0.1l1.3,0.5c4.9,3.4,4.9,13.6-1.1,15.2
	l-1.3,0.1l-1.4-0.1l-1.3-0.5c-2.2-1.6-2.9-3.6-3.4-6.2l-0.1-1.6l0.1-1.6l0.2-1.4l0.5-1.3l0.8-1.1l0.8-0.8l0.9-0.8l1.3-0.5L55,246.2
	L55,246.2z M134.9,246.2l1.3,0.1l1.4,0.5l1.9,1.9l0.6,1.3l0.5,1.4l0.3,1.6v3.2l-0.3,1.6l-0.5,1.1l-0.6,1.1l-1,0.8l-0.9,0.9l-1.3,0.3
	l-1.1,0.1l-1.4-0.1c-5.6-1.4-6.9-12-1.6-15.2l1.4-0.5L134.9,246.2L134.9,246.2z M104.5,246.5h2.7c9-0.3,9.3,15.5,0.1,15.3h-2.8
	V246.5z M270.1,247.1l3.2,9.8h-6l1.6-5.7L270.1,247.1z M413.1,247.1l3.4,9.8h-6l1.6-5.7L413.1,247.1z"/>
<path fill="#01335B" d="M96.9,90.8L91.5,90l-6.3-0.3l-6,0.3l-6,0.9c-65.8,15.9-61.1,107.3,6,116.2l6,0.3l6.3-0.3
	C158.6,197.5,162.8,106.5,96.9,90.8z M42.8,157.2l-0.6-4l-0.3-4.6l0.3-4.3l0.6-4.6c11.9-48.1,79-44.6,85.4,4.6l0.3,4.3l-0.3,4.6
	C121.1,202.1,54.6,205.2,42.8,157.2z"/>
<path id="path3229_1_" fill="#EE2722" d="M85.2,71.5h-4c-39.4,2.4-71.3,33.6-73.5,73.2v4H20l0.6-6.8c2.3-29.8,28.3-55.6,58.1-57.5
	l6.6-0.6V71.5 M85.2,111.9l-4,0.3C64.5,113.7,49.7,128,48.8,145l-0.3,3.7h36.7L85.2,111.9"/>
</svg>
